<svg width="24" height="24" viewBox="0 0 24 24" fill="none" xmlns="http://www.w3.org/2000/svg">
    <path
        d="M17.9985 6.75C18.4127 6.75 18.7485 6.41421 18.7485 6C18.7485 5.58579 18.4127 5.25 17.9985 5.25V6.75ZM8.99854 19L8.4682 19.5303C8.6827 19.7448 9.00529 19.809 9.28555 19.6929C9.5658 19.5768 9.74854 19.3033 9.74854 19H8.99854ZM5.52887 14.4697C5.23597 14.1768 4.7611 14.1768 4.46821 14.4697C4.17531 14.7626 4.17531 15.2374 4.46821 15.5303L5.52887 14.4697ZM13.5289 15.5303C13.8218 15.2374 13.8218 14.7626 13.5289 14.4697C13.236 14.1768 12.7611 14.1768 12.4682 14.4697L13.5289 15.5303ZM8.4682 18.4697C8.17531 18.7626 8.17531 19.2374 8.4682 19.5303C8.7611 19.8232 9.23597 19.8232 9.52887 19.5303L8.4682 18.4697ZM17.9985 5.25H11.9985V6.75H17.9985V5.25ZM11.9985 5.25C9.92747 5.25 8.24854 6.92893 8.24854 9H9.74854C9.74854 7.75736 10.7559 6.75 11.9985 6.75V5.25ZM8.24854 9V19H9.74854V9H8.24854ZM9.52887 18.4697L5.52887 14.4697L4.46821 15.5303L8.4682 19.5303L9.52887 18.4697ZM12.4682 14.4697L8.4682 18.4697L9.52887 19.5303L13.5289 15.5303L12.4682 14.4697Z"
        fill="#4B465C" />
    <path
        d="M17.9985 6.75C18.4127 6.75 18.7485 6.41421 18.7485 6C18.7485 5.58579 18.4127 5.25 17.9985 5.25V6.75ZM8.99854 19L8.4682 19.5303C8.6827 19.7448 9.00529 19.809 9.28555 19.6929C9.5658 19.5768 9.74854 19.3033 9.74854 19H8.99854ZM5.52887 14.4697C5.23597 14.1768 4.7611 14.1768 4.46821 14.4697C4.17531 14.7626 4.17531 15.2374 4.46821 15.5303L5.52887 14.4697ZM13.5289 15.5303C13.8218 15.2374 13.8218 14.7626 13.5289 14.4697C13.236 14.1768 12.7611 14.1768 12.4682 14.4697L13.5289 15.5303ZM8.4682 18.4697C8.17531 18.7626 8.17531 19.2374 8.4682 19.5303C8.7611 19.8232 9.23597 19.8232 9.52887 19.5303L8.4682 18.4697ZM17.9985 5.25H11.9985V6.75H17.9985V5.25ZM11.9985 5.25C9.92747 5.25 8.24854 6.92893 8.24854 9H9.74854C9.74854 7.75736 10.7559 6.75 11.9985 6.75V5.25ZM8.24854 9V19H9.74854V9H8.24854ZM9.52887 18.4697L5.52887 14.4697L4.46821 15.5303L8.4682 19.5303L9.52887 18.4697ZM12.4682 14.4697L8.4682 18.4697L9.52887 19.5303L13.5289 15.5303L12.4682 14.4697Z"
        fill="white" fill-opacity="0.5" />
</svg>