<svg width="96" height="96" viewBox="0 0 96 96" fill="none" xmlns="http://www.w3.org/2000/svg">
    <path
        d="M12 41.668C12 28.876 12 22.48 13.512 20.328C15.02 18.18 21.032 16.12 33.06 12.004L35.352 11.22C41.62 9.072 44.752 8 48 8C51.244 8 54.38 9.072 60.648 11.22L62.94 12.004C74.968 16.12 80.98 18.18 82.488 20.328C84 22.48 84 28.88 84 41.668V47.964C84 70.516 67.044 81.464 56.404 86.108C53.52 87.368 52.08 88 48 88C43.92 88 42.48 87.368 39.596 86.108C28.956 81.46 12 70.52 12 47.964V41.668Z"
        fill="#EA5455" fill-opacity="0.16" />
    <path
        d="M48 29C48.7956 29 49.5587 29.3161 50.1213 29.8787C50.6839 30.4413 51 31.2044 51 32V48C51 48.7956 50.6839 49.5587 50.1213 50.1213C49.5587 50.6839 48.7956 51 48 51C47.2044 51 46.4413 50.6839 45.8787 50.1213C45.3161 49.5587 45 48.7956 45 48V32C45 31.2044 45.3161 30.4413 45.8787 29.8787C46.4413 29.3161 47.2044 29 48 29ZM48 64C49.0609 64 50.0783 63.5786 50.8284 62.8284C51.5786 62.0783 52 61.0609 52 60C52 58.9391 51.5786 57.9217 50.8284 57.1716C50.0783 56.4214 49.0609 56 48 56C46.9391 56 45.9217 56.4214 45.1716 57.1716C44.4214 57.9217 44 58.9391 44 60C44 61.0609 44.4214 62.0783 45.1716 62.8284C45.9217 63.5786 46.9391 64 48 64Z"
        fill="#EA5455" />
</svg>