<svg width="78" height="78" viewBox="0 0 78 78" fill="none" xmlns="http://www.w3.org/2000/svg">
    <path
        d="M24.8587 32.479H43.3525C43.9799 32.4879 44.5969 32.318 45.1314 31.9893C45.666 31.6606 46.0959 31.1866 46.3711 30.6226V30.568C47.1511 28.8286 46.5115 26.7148 50.8795 26.7148H61.3315C62.2893 26.7148 63.2079 27.0953 63.8852 27.7726C64.5624 28.4499 64.9429 29.3684 64.9429 30.3262V60.8866C64.9429 61.8444 64.5624 62.763 63.8852 63.4403C63.2079 64.1176 62.2893 64.498 61.3315 64.498H24.8587C23.9009 64.498 22.9823 64.1176 22.3051 63.4403C21.6278 62.763 21.2473 61.8444 21.2473 60.8866V36.0904C21.2473 35.1326 21.6278 34.2141 22.3051 33.5368C22.9823 32.8595 23.9009 32.479 24.8587 32.479Z"
        fill="#17766B" />
    <path
        d="M61.23 59.3893V14.9293C61.2513 14.5684 61.1286 14.2138 60.8888 13.9433C60.649 13.6728 60.3116 13.5084 59.9508 13.4863H27.0114C26.6562 13.5104 26.3244 13.6723 26.0869 13.9375C25.8494 14.2027 25.7249 14.5502 25.74 14.9059V59.3659C25.7251 59.5465 25.7463 59.7283 25.8024 59.9006C25.8585 60.0729 25.9483 60.2323 26.0667 60.3695C26.185 60.5067 26.3295 60.619 26.4917 60.6998C26.6539 60.7806 26.8305 60.8283 27.0114 60.8401H59.9508C60.1301 60.8292 60.3056 60.783 60.4671 60.7041C60.6285 60.6252 60.7728 60.5152 60.8917 60.3804C61.0105 60.2456 61.1016 60.0887 61.1596 59.9186C61.2177 59.7485 61.2416 59.5687 61.23 59.3893Z"
        fill="#CBCBCB" />
    <path
        d="M58.1879 51.706V14.6638C58.1698 14.3278 58.0192 14.0127 57.7692 13.7876C57.5192 13.5624 57.1901 13.4456 56.8541 13.4626H25.1861C24.8514 13.4477 24.5244 13.5655 24.2761 13.7904C24.0278 14.0154 23.8783 14.3292 23.8601 14.6638V51.706C23.8763 52.0419 24.0249 52.3577 24.2734 52.5843C24.5219 52.8109 24.8501 52.9298 25.1861 52.915H56.8541C57.1909 52.9298 57.5199 52.8112 57.7697 52.5848C58.0194 52.3584 58.1697 52.0426 58.1879 51.706Z"
        fill="#E6E6E6" />
    <path
        d="M55.692 57.4547V18.1193C55.6889 17.9482 55.6522 17.7794 55.5839 17.6225C55.5156 17.4656 55.4171 17.3238 55.2939 17.205C55.1708 17.0862 55.0255 16.9928 54.8662 16.9302C54.707 16.8676 54.537 16.837 54.3659 16.8401H22.776C22.6049 16.837 22.4349 16.8676 22.2757 16.9302C22.1164 16.9928 21.9711 17.0862 21.848 17.205C21.7248 17.3238 21.6263 17.4656 21.558 17.6225C21.4897 17.7794 21.453 17.9482 21.45 18.1193V57.4547C21.453 57.6257 21.4897 57.7945 21.558 57.9514C21.6263 58.1083 21.7248 58.2502 21.848 58.3689C21.9711 58.4877 22.1164 58.5811 22.2757 58.6437C22.4349 58.7063 22.6049 58.737 22.776 58.7339H54.3659C54.537 58.737 54.707 58.7063 54.8662 58.6437C55.0255 58.5811 55.1708 58.4877 55.2939 58.3689C55.4171 58.2502 55.5156 58.1083 55.5839 57.9514C55.6522 57.7945 55.6889 57.6257 55.692 57.4547Z"
        fill="#CBCBCB" />
    <path
        d="M51.6983 18.9375H18.7589C18.0525 18.9375 17.4797 19.5102 17.4797 20.2167V59.5521C17.4797 60.2586 18.0525 60.8313 18.7589 60.8313H51.6983C52.4048 60.8313 52.9775 60.2586 52.9775 59.5521V20.2167C52.9775 19.5102 52.4048 18.9375 51.6983 18.9375Z"
        fill="#E6E6E6" />
    <path d="M22.6511 23.4473H41.0201" stroke="#CBCBCB" stroke-width="2" stroke-miterlimit="10"
        stroke-linecap="round" />
    <path d="M22.6511 27.9238H33.7193" stroke="#CBCBCB" stroke-width="2" stroke-miterlimit="10"
        stroke-linecap="round" />
    <path
        d="M18.993 32.5259H37.4868C38.1143 32.5354 38.7314 32.3648 39.265 32.0344C39.7986 31.704 40.2263 31.2277 40.4976 30.6617V30.6071C41.2776 28.8677 40.6458 26.7539 45.006 26.7539H55.4892C56.447 26.7539 57.3656 27.1344 58.0428 27.8117C58.7201 28.4889 59.1006 29.4075 59.1006 30.3653V60.9335C59.1006 61.4074 59.0071 61.8766 58.8255 62.3144C58.644 62.7521 58.3778 63.1497 58.0424 63.4844C57.7069 63.8191 57.3087 64.0844 56.8706 64.265C56.4325 64.4457 55.9631 64.5381 55.4892 64.5371H18.993C18.5191 64.5381 18.0497 64.4457 17.6116 64.265C17.1734 64.0844 16.7753 63.8191 16.4398 63.4844C16.1044 63.1497 15.8382 62.7521 15.6566 62.3144C15.4751 61.8766 15.3816 61.4074 15.3816 60.9335V36.1295C15.3816 35.6556 15.4751 35.1864 15.6566 34.7487C15.8382 34.3109 16.1044 33.9133 16.4398 33.5786C16.7753 33.2439 17.1734 32.9786 17.6116 32.798C18.0497 32.6173 18.5191 32.5249 18.993 32.5259Z"
        fill="#156B5E" />
    <path
        d="M16.6451 32.5259H35.2169C35.8421 32.5249 36.4538 32.3432 36.9782 32.0028C37.5027 31.6624 37.9176 31.1778 38.1731 30.6071C38.9531 28.8677 38.3135 26.7539 42.6815 26.7539H53.1413C54.0985 26.756 55.0158 27.1371 55.6927 27.8139C56.3695 28.4908 56.7506 29.4081 56.7527 30.3653V60.9335C56.7506 61.89 56.3692 62.8065 55.6922 63.4821C55.0151 64.1577 54.0977 64.5371 53.1413 64.5371H16.6451C16.1712 64.5381 15.7018 64.4457 15.2637 64.265C14.8255 64.0844 14.4274 63.8191 14.0919 63.4844C13.7565 63.1497 13.4903 62.7521 13.3087 62.3144C13.1272 61.8766 13.0337 61.4074 13.0337 60.9335V36.1295C13.0337 35.6556 13.1272 35.1864 13.3087 34.7487C13.4903 34.3109 13.7565 33.9133 14.0919 33.5786C14.4274 33.2439 14.8255 32.9786 15.2637 32.798C15.7018 32.6173 16.1712 32.5249 16.6451 32.5259Z"
        fill="url(#paint0_linear_45_474)" />
    <defs>
        <linearGradient id="paint0_linear_45_474" x1="34.8893" y1="64.5371" x2="34.8893"
            y2="26.7539" gradientUnits="userSpaceOnUse">
            <stop stop-color="#156B5E" />
            <stop offset="0.12" stop-color="#187869" />
            <stop offset="0.33" stop-color="#1B8676" />
            <stop offset="0.58" stop-color="#1C8E7E" />
            <stop offset="1" stop-color="#1D9180" />
        </linearGradient>
    </defs>
</svg>
    